<svg width="145" height="99" viewBox="0 0 145 99" fill="none" xmlns="http://www.w3.org/2000/svg">
<path d="M113.96 59.0735L126.918 59.0717C126.233 61.6106 124.566 65.2888 123.389 67.65C116.579 80.9614 104.862 91.1054 90.7118 95.94C76.2752 100.844 60.4825 99.822 46.7992 93.0963C35.293 87.4219 26.0077 78.0728 20.4124 66.5285C19.1846 63.9972 18.3248 61.7217 17.4243 59.0823C18.8591 59.0458 20.4325 59.0752 21.8769 59.0746L30.4033 59.0758C35.1097 69.7886 42.9665 78.0888 53.7169 82.8927C64.6906 87.7804 77.1547 88.117 88.3764 83.8293C97.8645 80.1824 105.857 73.4627 111.078 64.7426C112.245 62.7965 113.05 61.1204 113.96 59.0735Z" fill="#F4F4F4"/>
<path d="M111.749 71.5888C112.627 71.492 113.459 71.8611 113.836 72.6938C114.009 73.0671 114.019 73.4953 113.864 73.8762C113.65 74.406 113.265 74.69 112.767 74.9044C110.819 75.2098 109.492 72.6259 111.749 71.5888Z" fill="#21126B"/>
<path d="M111.927 72.1768C113.155 72.2524 114.091 73.8257 112.553 74.2964C112.429 74.2816 112.306 74.2574 112.186 74.2238C111.184 73.9367 110.671 72.7236 111.927 72.1768Z" fill="#F4F4F4"/>
<path d="M107.736 76.1346C109.852 75.9716 110.834 78.6199 108.633 79.4839C106.832 79.8064 105.352 77.1806 107.736 76.1346Z" fill="#21126B"/>
<path d="M107.852 76.7197C108.927 76.7434 109.957 78.1684 108.551 78.889C107.474 78.9244 106.372 77.4302 107.852 76.7197Z" fill="#F4F4F4"/>
<path d="M91.4213 87.121C92.6375 87.0088 93.4803 88.4368 93.0958 89.5176C92.8702 90.1507 92.0864 90.3858 91.5028 90.6013L91.0309 90.785C90.6931 89.8111 90.2253 88.6801 89.8496 87.7051C90.3706 87.5025 90.8945 87.3076 91.4213 87.121Z" fill="#21126B"/>
<path d="M91.473 87.7065C91.8988 87.7101 92.2048 87.9883 92.3613 88.3633C92.7494 89.2941 92.4659 89.6283 91.7163 89.9337L91.5262 89.9721C91.2993 89.7949 90.8233 88.3822 90.6709 87.9918C90.9337 87.8814 91.2025 87.7963 91.473 87.7065Z" fill="#F4F4F4"/>
<path d="M64.9834 90.4707C65.5586 90.5345 66.4923 90.6148 67.038 90.7819C67.4959 90.9225 67.6965 91.607 67.4417 92.0328C67.137 92.5425 67.0401 92.3134 66.6581 92.5644L66.6891 92.6606C67.071 92.9459 67.3159 93.6398 67.5253 94.0958L66.7578 94.003C66.5169 93.745 66.0384 92.3382 65.6244 92.4126C65.312 92.6624 65.2824 93.4113 65.2319 93.8105C64.9856 93.7993 64.9082 93.7999 64.6737 93.7314C64.5354 93.4863 64.9225 90.916 64.9834 90.4707Z" fill="#21126B"/>
<path d="M65.5819 91.1123C65.9955 91.1501 66.56 91.1105 66.8142 91.4543C66.8808 91.6816 66.8422 91.7301 66.764 91.9687C66.4047 92.0714 65.8627 91.9828 65.478 91.9403C65.4968 91.6763 65.5457 91.3769 65.5819 91.1123Z" fill="#F4F4F4"/>
<path d="M81.3254 90.1434C82.6762 89.9491 83.1068 91.2277 81.9568 91.901C82.5179 92.2099 82.8475 92.6422 83.2787 93.1141L82.5079 93.2771C82.186 92.9469 81.8623 92.6186 81.5374 92.2914C81.3325 92.1248 81.0956 92.0309 80.8812 92.2075C80.7808 92.5802 80.9379 93.1377 81.02 93.5334L80.3597 93.6698C80.2268 92.7024 79.9492 91.3984 79.7578 90.4328C80.2687 90.3224 80.8092 90.2349 81.3254 90.1434Z" fill="#21126B"/>
<path d="M81.1831 90.7312C81.5168 90.6692 81.6763 90.6449 81.8907 90.9166C81.9799 91.3655 81.7584 91.4422 81.375 91.5485L80.6686 91.6861C80.6302 91.4098 80.5694 91.1404 80.5127 90.8676C80.7094 90.8138 80.9775 90.7707 81.1831 90.7312Z" fill="#F4F4F4"/>
<path d="M89.231 87.9448C89.41 88.1078 90.2387 90.6356 90.3775 91.0372L89.7532 91.2616L87.7887 89.677C88.006 90.342 88.2594 91.0307 88.4921 91.6933L87.9286 91.9036C87.6162 91.2403 87.0805 89.5548 86.8218 88.8059L87.4231 88.5898L89.446 90.2168C89.1897 89.5471 88.9451 88.8272 88.7024 88.1492L89.231 87.9448Z" fill="#21126B"/>
<path d="M42.0202 80.7603C42.1717 80.85 42.3969 81.0136 42.5496 81.117L42.3883 83.6837C42.8025 83.1451 43.2557 82.4771 43.6577 81.9172L44.1598 82.2722L42.2525 84.9552L41.6931 84.5578C41.7897 83.8733 41.8281 82.7482 41.8856 82.0117L40.6164 83.7888L40.124 83.4256L42.0202 80.7603Z" fill="#21126B"/>
<path d="M105.567 78.0269C105.844 78.2578 107.396 80.0927 107.75 80.4979L107.239 80.9414C106.438 80.6816 105.634 80.4329 104.826 80.1961L106.232 81.812L105.774 82.226L103.602 79.7378L104.097 79.3149C104.921 79.5677 105.743 79.8264 106.563 80.091C106.082 79.5311 105.597 78.9742 105.108 78.4208L105.567 78.0269Z" fill="#21126B"/>
<path d="M51.8553 86.6602L52.4696 86.9135C52.569 87.6677 52.7488 88.6806 52.898 89.4176C53.1753 88.7544 53.4426 88.0699 53.712 87.4019L54.2816 87.6364L53.0821 90.6419C52.8727 90.6597 52.6299 90.522 52.4248 90.4323C52.2946 89.6013 52.1559 88.7721 52.0086 87.9441L51.1991 89.9379L50.624 89.7141L51.8553 86.6602Z" fill="#21126B"/>
<path d="M113.876 68.6945C114.195 68.6839 114.409 68.6425 114.552 68.9449C114.413 69.5573 113.706 69.3122 113.33 69.8562C112.736 70.7155 114.75 72.1246 115.3 71.0315C115.453 70.7267 115.527 70.5797 115.448 70.2383C115.314 70.0889 115.396 70.129 115.194 70.116C114.98 70.2082 114.882 70.4125 114.746 70.6163L114.302 70.2855L115.127 69.1309C115.466 69.3494 115.896 69.6766 116.232 69.9158C116.157 70.6653 115.967 71.4407 115.258 71.8583C114.382 72.3751 113.206 71.8134 112.804 70.9381C112.629 70.5631 112.613 70.1326 112.762 69.7457C112.958 69.2408 113.394 68.9024 113.876 68.6945Z" fill="#21126B"/>
<path d="M62.839 90.0972L63.5316 90.2129C63.7599 91.377 63.9952 92.5387 64.2376 93.6998L63.5315 93.5828C63.476 93.3242 63.4378 93.0584 63.3961 92.7968L62.7373 92.6621L62.0841 92.5375L61.6788 93.222L60.978 93.1051L62.839 90.0972Z" fill="#21126B"/>
<path d="M62.9962 90.9951C63.1549 91.1717 63.3215 91.9117 63.137 92.155L62.8862 92.1255C62.7532 92.1019 62.6681 92.0818 62.5395 92.0487L62.4878 91.9454C62.5246 91.6477 62.8176 91.2792 62.9962 90.9951Z" fill="#F4F4F4"/>
<path d="M69.067 90.8833L69.7716 90.9282C70.1413 91.9729 70.5064 93.2486 70.8436 94.3217L70.1218 94.2562C70.0597 94.0064 70.0291 93.825 69.9077 93.5965C69.6896 93.4394 69.6602 93.4819 69.3694 93.4542L68.5833 93.3874L68.2588 94.1227L67.5576 94.0743C68.0142 93.0342 68.5748 91.9139 69.067 90.8833Z" fill="#21126B"/>
<path d="M69.3547 91.7021C69.4643 92.0051 69.7937 92.6453 69.5573 92.8981L69.2415 92.8993C69.0209 92.8556 69.0146 92.8963 68.9243 92.7634C68.9423 92.4363 69.2004 92.0158 69.3547 91.7021Z" fill="#F4F4F4"/>
<path d="M85.3876 89.1953C85.6008 89.3772 87.2552 91.5878 87.5801 92.0107L86.8802 92.1991C86.6191 91.8429 86.5689 91.5447 86.1324 91.6232L85.1224 91.9091L85.0811 92.6981L84.3823 92.896C84.5064 91.726 84.6215 90.5549 84.7279 89.3825L85.3876 89.1953Z" fill="#21126B"/>
<path d="M85.2859 90.0972C85.4536 90.2383 85.9645 90.8543 85.9563 91.0758L85.8328 91.1354L85.1719 91.3162C85.2038 90.9092 85.2422 90.5029 85.2859 90.0972Z" fill="#F4F4F4"/>
<path d="M103.176 80.0747C103.391 80.2507 104.965 82.3136 105.223 82.6462L104.698 83.0596L103.811 81.9292L102.795 82.7259C103.085 83.1293 103.449 83.3885 103.586 83.8321C103.526 84.05 103.519 83.9962 103.294 84.1693L103.212 84.2284C102.974 84.1404 101.391 82.0284 101.123 81.6841L101.645 81.2677L102.451 82.2971C102.779 82.0296 103.138 81.7579 103.473 81.4951L102.671 80.4722L103.176 80.0747Z" fill="#21126B"/>
<path d="M29.0137 65.9048C29.2495 65.9709 30.1396 67.6021 30.3401 67.9417L29.8643 68.2323L28.9601 66.7127L28.3353 67.0842C28.5447 67.4858 28.937 68.0965 29.1803 68.5016L28.6966 68.7851L27.923 67.5L27.8521 67.4202C27.6389 67.461 27.2897 67.7049 27.0857 67.8313L28.0265 69.4017L27.5514 69.697L26.2632 67.5413L29.0137 65.9048Z" fill="#21126B"/>
<path d="M79.1779 90.5072L79.3073 90.5049C79.4237 90.6856 79.4337 90.8244 79.3386 91.0181C79.0415 91.1179 78.0315 91.2018 77.6559 91.2437C77.6948 91.4788 77.7161 91.7434 77.7415 91.9825C78.2642 91.901 79.0285 91.7186 79.4827 91.9814L79.4863 92.1213C79.1585 92.4538 78.2908 92.4698 77.8224 92.5099L77.9163 93.4023L79.0267 93.2724C79.2665 93.2352 79.5772 93.1342 79.7521 93.3137C79.7704 93.4779 79.8052 93.5878 79.7231 93.7254C79.3882 93.8317 77.7941 93.9882 77.3304 94.0479C77.1792 92.9848 77.0611 91.8349 76.9341 90.763L79.1779 90.5072Z" fill="#21126B"/>
<path d="M47.2813 84.2739L49.3961 85.4947L49.1143 85.9807L47.5868 85.0884L47.2146 85.7291C47.6896 85.9926 48.1713 86.2766 48.6436 86.5477L48.36 87.029L46.9901 86.2376C46.8594 86.2701 46.5775 86.833 46.4966 86.9777L48.0698 87.8943L47.8006 88.3821L45.6392 87.1235L47.2813 84.2739Z" fill="#21126B"/>
<path d="M34.1559 73.1592C34.6977 73.7439 35.2357 74.4006 35.7536 75.0125L35.3323 75.3645C34.9482 74.9345 34.5563 74.4591 34.1798 74.0179L33.618 74.4981C33.9797 74.9056 34.3364 75.3231 34.6934 75.7348L34.2689 76.1192L33.2576 74.9215L33.2191 74.9032C33.0614 74.9375 32.6757 75.3072 32.5273 75.4371C32.8469 75.8529 33.3648 76.4181 33.7186 76.8285L33.2921 77.2024C32.777 76.5722 32.1981 75.9184 31.6665 75.2959L34.1559 73.1592Z" fill="#21126B"/>
<path d="M98.1926 83.625C98.2594 83.7012 98.4342 84.0042 98.4968 84.1069L96.9605 84.9905L97.3309 85.6194C97.7892 85.369 98.257 84.9609 98.697 84.8983C98.9191 84.9899 98.8943 85.0424 99.0378 85.2822L97.6114 86.1037L98.0591 86.8632C98.3698 86.7179 98.9664 86.3453 99.2853 86.1598C99.4224 86.073 99.4336 86.0712 99.5871 86.0169C99.788 86.1084 99.798 86.2112 99.9291 86.4285L97.7674 87.6971L96.1035 84.8428C96.7875 84.4684 97.5157 84.0219 98.1926 83.625Z" fill="#21126B"/>
<path d="M39.7562 78.9404C40.1904 79.2062 41.2312 80.0726 41.6822 80.4264L41.3313 80.8658L39.9411 79.7761L39.4864 80.3431L40.7885 81.3607L40.4417 81.8001L39.2461 80.8675L39.1812 80.8203C39.0225 80.89 38.7213 81.3164 38.5937 81.48C39.0564 81.8609 39.5678 82.2466 40.0424 82.6169L39.6983 83.0592C39.0401 82.5525 38.381 82.0227 37.7271 81.5077L39.7562 78.9404Z" fill="#21126B"/>
<path d="M58.8232 89.1841L59.4784 89.3371L59.1814 90.6051L60.4438 90.8933L60.7435 89.6217L61.3886 89.7977C61.1483 90.8366 60.9082 91.974 60.6285 92.9958L60.0004 92.8363C60.0994 92.3745 60.216 91.9032 60.324 91.4425L59.0494 91.1413C58.9603 91.5943 58.8314 92.0963 58.7258 92.5499L58.0723 92.3904C58.3323 91.3238 58.5826 90.2554 58.8232 89.1841Z" fill="#21126B"/>
<path d="M30.3554 68.1201C30.4846 68.2264 30.7128 68.5631 30.8224 68.7131L30.4114 69.8122C30.7905 69.8003 31.1872 69.7732 31.5675 69.7531L32.0319 70.3927C31.4075 70.4287 30.7825 70.4541 30.1573 70.4689C30.0506 70.753 29.5407 72.2501 29.3626 72.3186L28.9537 71.7611L29.4218 70.5126C28.9894 70.5256 28.5423 70.5539 28.109 70.5758L27.6382 69.9238L29.6882 69.8405L30.3554 68.1201Z" fill="#21126B"/>
<path d="M31.5444 71.1782C33.2709 70.9656 33.9517 72.8643 33.1536 73.2996C32.9141 73.2074 32.8792 73.1519 32.6863 72.97C33.1232 71.1888 31.3343 71.5638 30.6739 72.8383C30.7859 73.827 31.0699 73.6055 31.8371 73.6687C31.9134 73.6746 32.1221 74.0585 31.9805 74.2788C31.7578 74.3313 31.403 74.43 31.1815 74.3497C30.3684 74.0549 29.8322 73.2529 30.1912 72.393C30.4572 71.7558 30.9359 71.4487 31.5444 71.1782Z" fill="#21126B"/>
<path d="M100.381 82.2757C100.912 82.271 101 82.3206 101.442 82.6194C101.304 82.7712 101.233 82.8444 101.075 82.9749C100.621 83.1025 100.502 82.7771 100.058 83.0328C99.0394 83.6199 100.551 85.6964 101.362 84.8967C101.638 84.6239 101.576 84.3575 101.574 84.0014C101.688 83.8862 102.011 83.8219 102.186 83.7734C102.387 84.5778 102.134 85.2251 101.336 85.5576C100.994 85.7035 100.606 85.7029 100.264 85.5564C98.9035 84.9812 98.4723 82.8999 100.381 82.2757Z" fill="#21126B"/>
<path d="M56.4175 88.599C57.3602 88.4915 58.2017 88.8328 58.2777 89.8794C58.2037 90.0105 58.2018 89.9768 58.0317 90.0512C57.4839 89.9361 57.5609 89.2994 57.1184 89.1866C56.0056 88.9037 55.1578 91.073 56.6812 91.4084C57.0184 91.2549 57.0801 91.1804 57.3117 90.9147L57.8425 91.3027C57.4518 91.8283 56.9477 92.1331 56.2809 91.9205C55.8785 91.7899 55.5466 91.5017 55.3618 91.1214C54.8734 90.131 55.4743 89.0413 56.4175 88.599Z" fill="#21126B"/>
<path d="M72.1926 90.9597C73.1146 90.8911 73.4678 91.0293 73.8877 91.8497C73.7023 91.9058 73.3172 92.0877 73.1719 91.9076C72.4702 91.0352 71.7709 91.6247 71.713 92.5206C71.6462 93.5482 72.4418 94.2416 73.1187 93.4573C73.1825 93.2972 73.1837 93.2789 73.2871 93.1348C73.5464 93.071 73.6491 93.1537 73.9385 93.2388C73.9238 93.2801 73.9084 93.3208 73.8925 93.3616C72.9941 95.6165 70.2472 93.7325 71.169 91.7953C71.3994 91.3122 71.7207 91.1321 72.1926 90.9597Z" fill="#21126B"/>
<path d="M44.7921 83.0495C45.6811 83.0365 46.7736 83.711 46.4577 84.686C46.3582 84.7563 46.2886 84.8225 46.1245 84.774C45.6105 84.6429 45.9523 84.2543 45.7101 83.9584C44.9655 83.0483 43.9395 84.2832 43.9095 85.0723C43.8984 85.3634 44.1246 85.5601 44.3199 85.7332C44.79 85.8241 44.8824 85.7739 45.2645 85.4869L45.7039 86.0226C43.2915 87.5439 42.2226 83.8267 44.7921 83.0495Z" fill="#21126B"/>
<path d="M115.398 65.6548C115.569 65.8072 116.326 67.3214 116.477 67.6156L117.671 68.3113L117.337 68.8883L116.135 68.1955L113.89 68.2758L114.271 67.6079L115.773 67.5754C115.579 67.1939 115.256 66.6606 115.038 66.2779L115.398 65.6548Z" fill="#21126B"/>
<path d="M76.344 90.8006C76.5826 90.7616 76.585 90.7994 76.7202 90.9772C76.6889 91.449 76.0794 91.3888 75.7132 91.4047C75.7953 92.3131 75.862 93.2226 75.9146 94.1327C75.7073 94.1587 75.5348 94.2024 75.3387 94.1433C75.204 93.9939 75.2235 93.7754 75.2105 93.5639C75.1461 92.8806 75.1072 92.1542 75.0587 91.4662C74.7929 91.4868 74.2974 91.5672 74.0901 91.4443C74.0676 91.2406 74.0487 91.1915 74.1078 91.0025C74.3872 90.9016 75.9766 90.8248 76.344 90.8006Z" fill="#21126B"/>
<path d="M95.8768 84.9897C96.0216 85.0807 96.1001 85.3004 96.1798 85.4634L95.3081 85.8945L96.5254 88.3514L95.9306 88.6491L95.5349 87.8547L94.708 86.1934L93.8497 86.6269L93.5869 86.1337C94.327 85.7463 95.1255 85.3648 95.8768 84.9897Z" fill="#21126B"/>
<path d="M108.784 74.8652C109.064 75.0377 110.535 76.3559 110.847 76.6293L111.921 75.3844L112.35 75.7576L111.985 76.1663L110.827 77.5034L108.362 75.3572L108.784 74.8652Z" fill="#21126B"/>
<path d="M36.0582 75.3535L36.531 75.8278L34.5703 77.7076L35.7162 78.8924L35.3134 79.2827L33.7061 77.6084L36.0582 75.3535Z" fill="#21126B"/>
<path d="M37.9363 77.2568C38.0386 77.3295 38.3225 77.6118 38.4286 77.7122L36.5519 79.6617L37.7402 80.8045L37.366 81.1996C37.081 80.9882 36.0031 79.908 35.6875 79.6021L37.9363 77.2568Z" fill="#21126B"/>
<path d="M50.8023 86.1348L51.4067 86.4082C50.9803 87.4069 50.5106 88.4286 50.0685 89.4238L49.4609 89.1391L50.8023 86.1348Z" fill="#21126B"/>
<path d="M77.1421 0C77.2059 0.841129 77.171 2.34861 77.1763 3.22949L77.2007 9.7793C79.4076 10.1354 80.9473 10.5415 83.0562 11.2373L87.7212 2.70801C90.7116 4.26546 93.796 6.01534 96.7651 7.63965C96.3015 8.59279 95.5782 9.82771 95.0591 10.7773C94.087 12.5704 93.1058 14.3589 92.1147 16.1416C93.7213 17.2107 95.945 19.5099 97.2095 20.9492C99.7652 19.3455 102.845 17.5327 105.468 16.0283C105.984 16.818 106.478 17.7212 106.974 18.5322C108.252 20.62 109.467 22.7985 110.765 24.8701C108.107 26.3591 105.227 28.1636 102.586 29.7373C103.522 31.9765 104.193 34.3179 104.583 36.7129C105.386 36.6785 106.346 36.7181 107.163 36.709C109.435 36.6836 111.748 36.7521 114.018 36.6904C113.942 39.9719 113.979 43.7178 114.02 47.0107L104.707 47.0117C104.503 49.0981 103.608 52.1934 102.839 54.1279L110.751 58.8428L105.476 67.6865C104.646 67.2301 103.676 66.6163 102.852 66.125L97.647 63.0195C96.6854 64.4848 93.7987 67.0395 92.4331 68.1533C93.5665 70.0816 94.5737 72.1327 95.6841 74.0781C96.0502 74.7194 96.4276 75.4148 96.7554 76.0732C93.9032 77.7222 90.6349 79.4296 87.7183 81.0088L83.4312 73.1436C81.5099 73.8475 79.5241 74.3616 77.5024 74.6787C77.5408 77.6641 77.5596 80.6494 77.562 83.6348C74.1387 83.6041 70.6578 83.6737 67.228 83.6885L67.2095 74.7334C65.0611 74.4281 63.0098 73.8509 60.9663 73.1387C59.6856 75.677 58.0571 78.4946 56.6782 81.0146C53.793 79.3504 50.5831 77.6779 47.6401 76.0703C48.9418 73.5399 50.5711 70.6481 51.9692 68.1543C49.8718 66.4411 48.4793 65.1146 46.7407 63.0205C45.9086 63.5609 44.8926 64.1337 44.0327 64.6475L38.9263 67.6904L33.6528 58.8379C36.1824 57.3012 38.9923 55.5795 41.5581 54.1357C40.5733 51.5912 40.1374 49.6556 39.6704 47.0107L30.3882 47.0156L30.397 41.001C30.3969 39.604 30.4254 38.0814 30.3687 36.6943C33.3902 36.785 36.7843 36.7083 39.8345 36.707C39.9753 34.888 41.1317 31.4352 41.8179 29.7402C39.1605 28.1068 36.3416 26.4556 33.6489 24.873L38.9204 16.0332C41.5247 17.4608 44.6206 19.4085 47.1997 20.9492C48.7059 19.1572 50.4104 17.5416 52.2808 16.1338C50.6873 13.3683 49.2141 10.4299 47.6216 7.64648C50.5961 5.97605 53.6686 4.33501 56.6685 2.69922C57.2313 3.64648 57.8215 4.78636 58.3569 5.76562L61.3442 11.2393C63.1487 10.6051 65.0068 10.1357 66.896 9.83691L66.8315 0.0771484L73.2173 0.0566406C74.1033 0.0544138 75.7322 0.0911025 76.562 0H77.1421ZM97.189 40.8096C96.3886 27.0214 84.5692 16.4879 70.7788 17.2725C56.9662 18.0583 46.4107 29.8995 47.2124 43.71C48.0141 57.5203 59.8686 68.0614 73.6792 67.2441C87.4677 66.4279 97.9891 54.5976 97.189 40.8096Z" fill="#F4F4F4"/>
<path d="M71.377 25.2171C72.6876 25.2019 73.9988 25.1991 75.3095 25.2087V41.7156C75.3095 44.4654 75.3644 47.3971 75.3053 50.1213L75.1447 50.0279C75.0968 49.0977 75.1264 47.9355 75.1264 46.9884L75.127 41.7161L75.1281 25.3785C74.3751 25.2711 71.7615 25.5222 71.377 25.2171Z" fill="#F4F4F4"/>
<path d="M69.0902 25.2002C69.643 25.1952 70.5223 25.1676 71.1322 25.2002L71.3754 25.2178C71.7606 25.5226 74.3733 25.2716 75.1264 25.3789C73.9504 25.4337 72.5419 25.3998 71.3471 25.3975L71.348 49.7442C72.236 49.7179 72.8182 49.7086 73.7103 49.8262C74.0352 49.8691 74.9013 50.029 75.143 50.0284L75.3041 50.1221C75.3115 49.7815 75.3165 49.4372 75.3207 49.0909C75.3165 49.4374 75.3115 49.7814 75.3041 50.1221C75.4547 50.1541 75.6223 50.2082 75.7641 50.1817C76.0446 50.3883 77.6107 50.968 78.059 51.1963C79.6276 52.1318 81.095 53.2702 82.1185 54.8116C82.5024 55.3538 82.7424 55.7457 83.0424 56.3428C83.1445 56.5473 83.4331 57.1666 83.5355 57.3272C83.7996 58.3306 84.7551 61.2208 84.3021 62.1846C84.1298 62.3091 84.1541 62.2967 83.9008 62.2979C82.1637 62.3056 80.4195 62.3032 78.683 62.3038L68.4975 62.3067H63.2094C62.4353 62.3067 60.9565 62.3476 60.268 62.2383C59.6435 61.6903 60.6936 58.7781 60.5844 58.2881C60.6692 58.2032 60.9893 57.3824 61.059 57.1885C61.287 56.5532 61.6974 55.9794 61.9496 55.377C62.2103 55.1248 62.7641 54.2406 63.0912 53.878C63.6086 53.3048 64.119 52.8995 64.643 52.3682C64.6607 52.3648 64.7219 52.3119 64.7396 52.2979C64.7339 52.1489 64.5714 51.9663 64.4769 51.835L66.9203 50.1416C67.0403 50.3203 67.2107 50.6168 67.3793 50.7256L67.5043 50.7129C67.9177 50.4708 68.6155 50.2761 69.0892 50.1456C69.006 41.8972 69.0667 33.4595 69.0902 25.2002ZM71.7465 50.2256C68.4903 50.4391 65.67 51.6975 63.4945 54.1788C61.6406 56.2925 60.6116 59.0042 60.5961 61.8155L72.7934 61.8164L83.892 61.8145C83.8046 58.5353 82.6692 55.7012 80.2611 53.4122C78.0292 51.2912 75.0484 50.1402 71.9701 50.212C71.8957 50.2141 71.8209 50.2191 71.7465 50.2256ZM75.3285 45.9288L75.3295 48.0459C75.3389 45.9497 75.3082 43.7919 75.308 41.7354C75.3081 43.1043 75.3222 44.5181 75.3285 45.9288Z" fill="#F4F4F4"/>
<path d="M57.4038 37.1978C57.4331 37.209 57.5365 37.2461 57.5639 37.2852C59.5725 40.1453 61.5657 43.0418 63.5108 45.9461C63.5133 46.0289 63.5153 46.0956 63.5167 46.146C63.4527 46.1249 63.362 46.1002 63.2967 46.0059C61.3178 43.1438 59.3095 40.2778 57.3887 37.3781C57.3937 37.3179 57.3988 37.2579 57.4038 37.1978Z" fill="#F4F4F4"/>
<path d="M56.7212 37.6514L56.8665 37.6808C57.3102 38.0144 59.4718 41.4809 59.9849 42.1199C60.33 42.5497 62.8719 46.2854 62.9185 46.5505C62.8923 46.5487 62.775 46.5382 62.7604 46.5183C60.7226 43.7423 58.8081 40.8104 56.8424 37.9709C56.763 37.8562 56.7383 37.7473 56.7212 37.6514Z" fill="#F4F4F4"/>
<path d="M56.1226 38.064C56.4314 38.1748 57.9229 40.4786 58.201 40.8831L60.8348 44.7182C61.1117 45.1218 62.2541 46.6543 62.2674 47.0244C62.211 46.9949 62.0871 46.9441 62.0501 46.8911C60.0537 44.0356 58.0692 41.1621 56.1308 38.2667C56.1308 38.2667 56.1233 38.0817 56.1226 38.064Z" fill="#F4F4F4"/>
<path d="M53.9942 33.7153C54.4333 33.8078 57.0013 35.7078 57.5938 36.0718C57.8944 36.2566 59.0715 38.0457 59.3497 38.4507L62.2051 42.6089L65.42 47.2925C65.9621 48.0823 66.5255 48.8856 67.0508 49.688C67.1415 49.8265 67.1408 49.9038 67.127 50.061C67.2372 50.2306 67.4549 50.5342 67.5069 50.7134L67.3819 50.7251C67.2136 50.616 67.0437 50.3205 66.9239 50.1421L64.4795 51.8345C64.5739 51.9657 64.7362 52.1493 64.7422 52.2983C64.7243 52.3125 64.6634 52.364 64.6455 52.3677C64.3723 51.9596 64.1652 52.0061 63.9678 51.7388C63.0762 50.5306 62.2444 49.2663 61.3946 48.0269L56.5616 40.9878C56.1678 40.4123 55.0794 38.7503 54.6748 38.3335C54.5191 37.6404 53.7186 34.1842 53.8438 33.7603L53.9942 33.7153ZM55.2002 38.1353C56.1116 39.4635 64.1019 51.2048 64.3252 51.3335L66.5528 49.8062C65.7936 48.7095 57.7202 36.8176 57.4268 36.6138L55.2002 38.1353ZM54.5391 35.3325L55.0821 37.8921L56.0196 37.2505L57.2315 36.4155C56.5487 35.9533 55.7541 35.3858 55.0586 34.9634L54.5391 35.3325Z" fill="#F4F4F4"/>
<path d="M82.1206 54.8109C83.1808 53.7833 86.2421 51.0346 86.7643 50.0166C88.3838 46.8571 87.5108 42.9042 92.5851 43.0736C93.1923 43.0939 93.7357 43.0798 94.3204 43.4384L94.3753 43.5315C94.2052 43.9672 92.1964 44.9614 91.643 45.3827C91.2437 47.1342 91.578 48.5301 93.5933 48.8271L93.673 48.7792C94.2849 48.4063 95.7438 47.1394 96.2707 47.2592C96.3705 47.3766 96.3971 47.4477 96.3918 47.6055C96.3581 48.5996 95.0498 50.3131 94.3133 50.9267C92.6878 52.2823 90.3465 51.6186 88.5645 52.5541C87.4494 53.1395 84.6279 56.2599 83.5382 57.3269C83.436 57.1671 83.1471 56.5467 83.045 56.3421C82.7449 55.7449 82.5045 55.3532 82.1206 54.8109Z" fill="#F4F4F4"/>
<path d="M53.4177 46.271C56.3525 46.2762 56.3166 49.2568 57.654 51.0405C58.0187 51.5268 58.8003 52.2301 59.2585 52.686L61.9499 55.3755C61.6976 55.9778 61.2883 56.5518 61.0603 57.187C60.9906 57.381 60.6695 58.2006 60.5847 58.2856L57.2331 55.0337C56.681 54.4958 55.7265 53.5097 55.1433 53.106C54.0194 52.3594 52.4018 52.2777 51.4157 51.3149C49.607 49.5486 50.8369 46.2668 53.4177 46.271ZM53.447 47.2876C53.2957 47.221 53.0197 47.0886 52.8728 47.0454C52.5239 47.5621 52.5382 47.5342 51.9109 47.6079C51.8423 48.2854 51.8738 48.1875 51.3386 48.5737L51.5935 49.1421L51.3386 49.7007C51.4214 49.7555 51.7148 49.9512 51.739 49.9985C51.9621 50.4369 51.7529 50.6508 52.3816 50.77C52.6557 50.8221 52.7295 51.0054 52.8855 51.2466L53.445 50.9898C53.5931 51.0526 53.8808 51.1852 54.0222 51.229C54.6684 50.276 54.988 51.1026 55.0544 50.0591L55.5573 49.6997L55.2976 49.1392L55.5583 48.5757L55.0544 48.2144L54.9802 47.6099L54.3698 47.5298L54.0095 47.0259L53.447 47.2876Z" fill="#F4F4F4"/>
<path d="M79.3413 46.6055C78.3939 44.1968 79.8103 41.4814 82.5703 41.6586C82.9525 41.6831 83.5845 41.5964 83.8331 41.9442C83.8007 42.366 82.2053 43.766 81.799 44.2337C82.1002 44.6298 82.9324 45.4792 83.3281 45.7679L83.3825 45.7314C84.0222 45.2934 85.0245 43.9869 85.5537 43.7893C85.6541 43.8099 85.7634 43.8153 85.79 43.9289C86.214 45.7384 85.787 47.273 84.2454 48.1256C83.3973 48.5924 82.3967 48.6979 81.47 48.4182C81.3093 48.3731 81.1516 48.3186 80.9975 48.255C80.0264 49.23 79.0448 50.237 78.0608 51.1954C77.6125 50.9671 76.0467 50.3877 75.7661 50.1811L79.3413 46.6055Z" fill="#F4F4F4"/>
<path d="M97.7376 54.6595C98.8574 54.4644 99.9253 55.2079 100.131 56.3257C100.337 57.4435 99.6034 58.5182 98.4877 58.7344C97.3566 58.9535 96.2639 58.2081 96.0554 57.0753C95.8475 55.9424 96.603 54.8572 97.7376 54.6595Z" fill="#21126B"/>
<path d="M46.3788 55.7245C47.4931 55.4563 48.6135 56.144 48.8787 57.2591C49.1439 58.3741 48.453 59.4927 47.3372 59.7549C46.2256 60.016 45.1124 59.3279 44.8482 58.2174C44.584 57.1067 45.2686 55.9917 46.3788 55.7245Z" fill="#21126B"/>
<path d="M76.2726 12.3519C79.1585 12.2324 79.2046 15.3813 77.2182 16.2023C74.4576 16.6089 74.0931 13.1459 76.2726 12.3519Z" fill="#21126B"/>
<path d="M76.4943 12.9957C76.6366 12.9925 76.8463 12.9861 76.9821 13.0132C77.2503 13.0688 77.4836 13.2316 77.6289 13.4638C78.0861 14.1937 77.6643 15.1766 76.9402 15.5794C75.2681 15.6719 75.2793 13.6047 76.4943 12.9957Z" fill="#F4F4F4"/>
<path d="M44.4383 32.3106C44.9869 32.2889 45.246 32.2748 45.7639 32.4625C47.0237 32.9192 47.4021 34.3872 46.5361 35.4045C46.266 35.722 46.0354 35.8322 45.6524 35.9706C42.9003 36.2929 42.097 33.2027 44.4383 32.3106Z" fill="#21126B"/>
<path d="M44.4192 33.0761C45.9564 32.9892 47.2044 34.2404 45.678 35.1798C44.1428 35.4599 42.8784 33.9921 44.4192 33.0761Z" fill="#F4F4F4"/>
<path d="M67.8734 69.0546C68.6723 69.0522 70.5437 68.7982 70.871 69.6835C71.1799 70.518 70.712 70.9368 70.0167 71.1748C70.6109 71.6933 70.8332 72.1587 71.2526 72.8308L70.4477 72.8343C70.0517 72.6637 69.5239 71.1996 68.7891 71.1689L68.6836 71.2746C68.6066 71.5835 68.636 72.4699 68.6373 72.832L67.8726 72.8326L67.8734 69.0546Z" fill="#21126B"/>
<path d="M68.636 69.6879C69.1442 69.6767 69.8619 69.5403 70.1464 70.0116C70.1773 70.2573 70.1461 70.3039 70.0466 70.5349C69.6531 70.676 69.067 70.6376 68.6357 70.6353L68.636 69.6879Z" fill="#F4F4F4"/>
<path d="M98.2572 26.9434C98.3701 27.0686 98.5266 27.4198 98.611 27.5885L97.0636 30.1112C97.7788 29.7247 98.5768 29.3393 99.3068 28.9684L99.6228 29.5929C98.6087 30.1561 97.3223 30.7641 96.2703 31.2972L95.9171 30.621L97.4126 28.1639L95.2337 29.2659L94.9219 28.6319L98.2572 26.9434Z" fill="#21126B"/>
<path d="M50.3446 21.3154C50.9378 21.7261 52.5894 23.2464 53.1899 23.7734L52.6995 24.3512C51.8073 24.1718 50.743 24.0238 49.8334 23.8659L51.7035 25.4983L51.2523 26.0067C50.9237 25.8018 48.8752 23.9774 48.3936 23.5634L48.882 23.0015C49.8555 23.1564 50.8273 23.3214 51.7974 23.4964C51.1586 22.9442 50.5238 22.3873 49.8933 21.8257L50.3446 21.3154Z" fill="#21126B"/>
<path d="M71.3532 11.9961C72.2616 12.0469 74.0808 11.7861 74.2037 13.0184C74.2385 13.3779 74.1192 13.7352 73.8759 14.002C73.5209 14.3904 73.2191 14.3683 72.7359 14.3798C72.5339 14.3638 72.3644 14.3281 72.1801 14.3999C71.8954 14.6689 72.0077 15.289 71.9929 15.7736L71.2422 15.7728C71.267 14.5136 71.3036 13.2546 71.3532 11.9961Z" fill="#21126B"/>
<path d="M72.0793 12.6392C72.742 12.6727 73.8105 12.6441 73.2547 13.6262C72.8236 13.7955 72.5011 13.756 72.0498 13.7251L72.0793 12.6392Z" fill="#F4F4F4"/>
<path d="M60.2941 14.5259C60.4321 14.6167 61.1177 15.2887 61.2589 15.4251L63.2352 17.3284L62.4788 17.6703C62.148 17.3189 62.0002 16.9877 61.5262 17.1644L60.4597 17.6526C60.4818 17.9448 60.5172 18.2542 60.5456 18.5475L59.7894 18.8872L59.585 14.8575L60.2941 14.5259Z" fill="#21126B"/>
<path d="M60.2974 15.561C60.5094 15.6602 61.1968 16.311 61.2585 16.5555L61.1116 16.655L60.4109 16.9701C60.3855 16.4995 60.3477 16.0297 60.2974 15.561Z" fill="#F4F4F4"/>
<path d="M68.3237 12.2485C68.4274 12.3762 68.4497 12.6609 68.4834 12.8458C67.8702 12.9862 67.0993 13.1045 66.4699 13.2183C66.5282 13.4878 66.5808 13.7659 66.6354 14.0369C67.0376 13.9831 68.2379 13.6694 68.5043 13.788C68.5724 14.0615 68.5894 13.9741 68.516 14.2164C68.2011 14.5034 67.2506 14.5769 66.7459 14.6709L66.9435 15.6861C67.438 15.5795 67.9719 15.486 68.4717 15.3903C68.6839 15.3458 68.7292 15.3263 68.94 15.348C69.0779 15.4704 69.0892 15.7151 69.1246 15.9096C68.2182 16.1049 67.2272 16.2548 66.3027 16.4397C66.0738 15.204 65.852 13.9669 65.6372 12.7286L68.3237 12.2485Z" fill="#21126B"/>
<path d="M75.1955 69.0544L77.9928 69.0532L77.9934 69.6869H75.9569L75.9563 70.5622C76.3355 70.5628 77.6142 70.4754 77.8399 70.6602C77.8535 70.8646 77.8635 70.8805 77.7649 71.0494C77.4235 71.2963 76.5812 71.1835 76.0774 71.177L75.9917 71.2219C75.9262 71.4439 75.9533 71.9601 75.9563 72.2176C76.3526 72.2182 77.8304 72.0936 78.0448 72.3889C78.0348 72.6328 78.0779 72.6541 77.9556 72.7999C77.4081 72.8874 75.7956 72.8383 75.1914 72.8348L75.1955 69.0544Z" fill="#21126B"/>
<path d="M89.6352 17.5718C90.211 17.9526 91.2577 18.8338 91.8371 19.2913L91.4366 19.7906C90.9629 19.3835 90.3551 18.928 89.8572 18.5339L89.3333 19.191L90.8141 20.3565L90.426 20.8512L89.0569 19.7739L88.9518 19.7378C88.7722 19.8493 88.4503 20.2985 88.3009 20.4897C88.8549 20.9219 89.406 21.3579 89.9541 21.7981L89.5637 22.2878L87.3198 20.5186C88.0971 19.5408 88.8691 18.5585 89.6352 17.5718Z" fill="#21126B"/>
<path d="M54.4886 17.9688C54.8823 18.0267 55.0291 18.053 55.3239 18.3555L55.3037 18.4582C55.1278 18.6216 55.0426 18.7298 54.8142 18.8016C54.2214 18.6087 53.7305 18.8066 53.5706 19.4459C53.6801 19.8112 54.2395 19.673 54.4612 19.5241C55.1689 19.0486 56.4277 18.8719 56.6464 20.0342C56.7067 20.3443 56.641 20.6656 56.4638 20.9271C56.0864 21.4744 55.5908 21.732 54.9626 21.8688C54.4518 21.7722 54.345 21.6874 53.9416 21.3891C54.5071 20.7985 54.3947 20.9597 55.0335 21.1181C55.3954 21.2079 56.3019 20.489 55.7754 20.0079C54.9968 19.8295 54.0144 20.811 53.2953 20.2636C52.1617 19.4006 53.5161 18.1625 54.4886 17.9688Z" fill="#21126B"/>
<path d="M45.5989 28.6505C45.8268 28.6429 45.9692 28.6136 46.1677 28.7209C46.5584 29.296 45.5989 29.4921 45.3671 29.6428C45.2399 29.7248 45.1556 29.859 45.1369 30.0092C45.1064 30.2428 45.1304 30.3806 45.2715 30.5526C45.3574 30.5848 45.513 30.6373 45.5844 30.5782C46.2714 30.0096 46.3118 29.4611 47.2276 29.1622L47.3078 29.1364C49.1609 29.604 48.5314 31.6792 47.1726 32.1193C46.8697 32.1318 46.8158 32.1169 46.52 32.0409L46.4468 31.8606C46.5764 31.2984 47.5068 31.3333 47.7714 30.8016C47.9173 30.5086 47.7513 30.1181 47.4718 29.983C46.9562 29.9656 46.4813 30.9021 45.9903 31.1866C44.9962 31.7626 44.193 30.7599 44.6005 29.7864C44.837 29.2217 45.0153 28.9278 45.5989 28.6505Z" fill="#21126B"/>
<path d="M95.6738 23.3159C95.8499 23.3916 96.0448 23.7253 96.1676 23.9006L94.9615 24.7581L95.828 25.9745L97.0294 25.1183L97.4753 25.7357C96.4511 26.4309 95.4417 27.2008 94.411 27.9071L93.9734 27.2953L95.3195 26.3457L94.4429 25.1294L93.1087 26.0795C92.9598 25.8789 92.8139 25.6651 92.6704 25.4602C93.6603 24.7864 94.6951 24.017 95.6738 23.3159Z" fill="#21126B"/>
<path d="M71.6816 69.0535C72.267 69.0559 73.9686 68.9945 74.4287 69.1014C74.5114 69.2537 74.4813 69.3724 74.4689 69.549C74.2102 69.7876 72.8677 69.6943 72.4483 69.6878L72.4471 70.5637C72.8033 70.5631 74.1163 70.478 74.3147 70.6605C74.3271 70.8637 74.3372 70.8808 74.238 71.048C73.9155 71.2936 73.0307 71.1832 72.541 71.1785L72.4938 71.2127C72.4146 71.4118 72.4448 71.9722 72.4471 72.2191C72.997 72.2144 73.9651 72.1825 74.476 72.2421L74.5191 72.3124C74.5221 72.5097 74.5604 72.6691 74.4665 72.8062C73.9255 72.8841 72.3249 72.8386 71.6816 72.8351V69.0535Z" fill="#21126B"/>
<path d="M47.648 24.6724C48.1755 25.0499 50.1926 26.1028 50.3486 26.8239C50.5584 27.7931 49.4268 29.1918 48.353 28.6596C47.7286 28.3503 46.9401 27.8071 46.274 27.3708C46.1994 27.3245 46.1454 27.2736 46.0771 27.2166C46.0596 27.0263 46.2989 26.7386 46.4182 26.5657C46.8333 26.7964 48.6413 28.1561 49.0193 27.9968C50.9067 27.2013 47.9495 25.7759 47.2211 25.3204L47.648 24.6724Z" fill="#21126B"/>
<path d="M92.6606 20.6909C93.9954 20.7515 94.7515 21.8441 94.2157 23.1077C94.0179 22.993 93.7562 22.8152 93.5583 22.6885C94.387 20.685 90.9188 21.291 91.3936 23.2486C91.8608 23.8074 92.0947 23.7758 92.7279 23.5227C92.8384 23.7266 93.0031 23.9601 92.9884 24.1745C92.6553 24.5542 91.7067 24.4558 91.3375 24.1448C89.8609 22.9008 90.9636 20.8964 92.6606 20.6909Z" fill="#21126B"/>
<path d="M99.2344 32.6113C101.16 32.4746 102.073 34.4338 100.603 35.6169L100.228 34.9427C100.48 34.7253 100.805 34.2641 100.663 33.9553C100.274 33.1135 99.2616 33.3803 98.6969 33.5846C97.9368 33.9888 97.6733 34.6504 98.5316 35.1151C98.717 35.2155 98.9019 35.263 99.0755 35.3871C99.2013 35.6822 99.1382 35.8651 98.8511 36.017C97.2581 36.0438 96.4726 33.2342 99.2344 32.6113Z" fill="#21126B"/>
<path d="M82.5657 13.8013L83.3802 14.1705C83.4104 14.6667 83.5114 15.3722 83.5687 15.8814L84.9768 14.8857L85.7718 15.247C85.2703 15.5558 84.7429 15.9178 84.2485 16.2447L83.6159 16.6615L82.9656 18.1037L82.2822 17.785L82.939 16.3073C82.7949 15.6789 82.662 14.4784 82.5657 13.8013Z" fill="#21126B"/>
<path d="M86.2502 15.5166L88.8396 17.0115L88.5272 17.567L87.5656 17.0096C87.2301 17.5489 86.8745 18.2014 86.552 18.7584L86.0033 19.7212L85.3389 19.3371L86.9053 16.6277L85.9331 16.08L86.2502 15.5166Z" fill="#21126B"/>
<path d="M58.1513 15.5249C58.2349 15.6241 58.4126 15.9404 58.4885 16.0673L57.5241 16.632C58.0521 17.5106 58.5771 18.4488 59.0927 19.3389L58.4351 19.7192L57.9432 18.8708C57.5775 18.2572 57.2189 17.6284 56.8595 17.0101L55.9015 17.5759L55.5747 17.0221L58.1513 15.5249Z" fill="#21126B"/>
<path d="M64.7467 12.9443C64.9004 13.0788 64.9182 13.3029 64.9845 13.534L63.91 13.8373L64.7616 16.8481L64.0342 17.056L63.7807 16.1547L63.1868 14.0373L62.1127 14.3429L61.9341 13.7448C62.8498 13.4683 63.8231 13.2065 64.7467 12.9443Z" fill="#21126B"/>
<path d="M79.7873 13.0361C80.0513 13.1102 80.2521 13.1786 80.5085 13.271L79.6715 16.2263L81.4895 16.7347L81.3165 17.3466L78.7832 16.6254C79.0815 15.4569 79.4589 14.2046 79.7873 13.0361Z" fill="#21126B"/>
<path d="M66.3855 69.0532L67.1464 69.0544L67.1471 72.8318L66.3813 72.833L66.3855 69.0532Z" fill="#21126B"/>
<path d="M99.905 30.644L99.9936 30.6561C100.127 30.8073 100.216 31.1094 100.29 31.3098L96.9352 32.6218L96.8354 32.6442C96.6889 32.5292 96.5832 32.1694 96.5088 31.9758C97.644 31.5392 98.7757 31.0953 99.905 30.644Z" fill="#21126B"/>
<path d="M9.85612 43.8634L26.5743 57.6772L15.1072 57.6772L18.6007 67.0879L2.13741 53.5454L10.3894 51.2859L9.85612 43.8634Z" fill="#F4F4F4"/>
<path d="M134.143 43.2945L119.192 57.3184L129.482 57.3184L126.39 66.8687L142.265 52.6408L133.924 50.733L134.143 43.2945Z" fill="#F4F4F4"/>
</svg>
